<svg width="231" height="55" viewBox="0 0 231 55" fill="none" xmlns="http://www.w3.org/2000/svg">
<path fill-rule="evenodd" clip-rule="evenodd" d="M195.984 12.4569H187.664V42.4569H195.984V12.4569ZM188.66 7.35925C189.546 8.17957 190.607 8.58972 191.844 8.58972C193.081 8.58972 194.135 8.17957 195.008 7.35925C195.893 6.52592 196.336 5.52983 196.336 4.37097C196.336 3.22514 195.893 2.24207 195.008 1.42176C194.135 0.58842 193.081 0.171753 191.844 0.171753C190.607 0.171753 189.546 0.58842 188.66 1.42176C187.788 2.24207 187.352 3.22514 187.352 4.37097C187.352 5.52983 187.788 6.52592 188.66 7.35925ZM90.2568 10.2889C91.4417 11.1613 92.1123 12.3853 92.2686 13.9608H100.374C100.335 11.578 99.6969 9.48165 98.46 7.67176C97.223 5.86186 95.4912 4.4491 93.2646 3.43347C91.0511 2.41785 88.46 1.91003 85.4912 1.91003C82.5745 1.91003 79.9704 2.41785 77.6787 3.43347C75.387 4.4491 73.5837 5.86186 72.2686 7.67176C70.9665 9.48165 70.3219 11.5975 70.335 14.0194C70.3219 16.9751 71.292 19.3254 73.2451 21.0702C75.1982 22.815 77.861 24.0975 81.2334 24.9178L85.5889 26.0116C87.0472 26.3632 88.2777 26.7538 89.2803 27.1835C90.2959 27.6132 91.0641 28.134 91.585 28.746C92.1188 29.358 92.3857 30.1132 92.3857 31.0116C92.3857 31.9751 92.0928 32.828 91.5068 33.5702C90.9209 34.3124 90.0941 34.8918 89.0264 35.3085C87.9717 35.7251 86.7282 35.9335 85.2959 35.9335C83.8376 35.9335 82.529 35.7121 81.3701 35.2694C80.2243 34.8137 79.3063 34.1431 78.6162 33.2577C77.9391 32.3593 77.555 31.2395 77.4639 29.8983H69.2803C69.3454 32.7759 70.042 35.1913 71.3701 37.1444C72.7113 39.0845 74.5732 40.5494 76.9561 41.5389C79.3519 42.5285 82.1644 43.0233 85.3936 43.0233C88.6488 43.0233 91.4287 42.535 93.7334 41.5585C96.0511 40.5689 97.8219 39.1822 99.0459 37.3983C100.283 35.6014 100.908 33.479 100.921 31.0311C100.908 29.3645 100.602 27.8866 100.003 26.5975C99.417 25.3085 98.5902 24.1887 97.5225 23.2382C96.4548 22.2876 95.1917 21.4869 93.7334 20.8358C92.2751 20.1848 90.6735 19.6639 88.9287 19.2733L85.335 18.4139C84.4626 18.2186 83.6423 17.9843 82.874 17.7108C82.1058 17.4244 81.4287 17.0923 80.8428 16.7147C80.2568 16.3241 79.7946 15.8619 79.4561 15.328C79.1305 14.7942 78.9808 14.1692 79.0068 13.453C79.0068 12.5936 79.2542 11.8254 79.749 11.1483C80.2568 10.4712 80.986 9.94389 81.9365 9.56629C82.887 9.17566 84.0524 8.98035 85.4326 8.98035C87.4639 8.98035 89.0719 9.41654 90.2568 10.2889ZM0.476562 42.4569V2.45691H16.4922C19.4349 2.45691 21.8893 2.89311 23.8555 3.7655C25.8216 4.6379 27.2995 5.84884 28.2891 7.39832C29.2786 8.93478 29.7734 10.7056 29.7734 12.7108C29.7734 14.2733 29.4609 15.647 28.8359 16.8319C28.2109 18.0038 27.3516 18.9673 26.2578 19.7225C25.1771 20.4647 23.9401 20.9921 22.5469 21.3046V21.6952C24.0703 21.7603 25.4961 22.19 26.8242 22.9843C28.1654 23.7785 29.2526 24.8918 30.0859 26.3241C30.9193 27.7434 31.3359 29.4361 31.3359 31.4022C31.3359 33.5246 30.8086 35.4192 29.7539 37.0858C28.7122 38.7395 27.1693 40.0481 25.125 41.0116C23.0807 41.9751 20.5612 42.4569 17.5664 42.4569H0.476562ZM8.93359 35.5428H15.8281C18.1849 35.5428 19.9036 35.0936 20.9844 34.1952C22.0651 33.2837 22.6055 32.0728 22.6055 30.5624C22.6055 29.4556 22.3385 28.479 21.8047 27.6327C21.2708 26.7863 20.5091 26.1223 19.5195 25.6405C18.543 25.1587 17.3776 24.9178 16.0234 24.9178H8.93359V35.5428ZM8.93359 19.1952H15.2031C16.362 19.1952 17.3906 18.9934 18.2891 18.5897C19.2005 18.1731 19.9167 17.5871 20.4375 16.8319C20.9714 16.0767 21.2383 15.1718 21.2383 14.1171C21.2383 12.6718 20.724 11.5064 19.6953 10.621C18.6797 9.73556 17.2344 9.29285 15.3594 9.29285H8.93359V19.1952ZM50.2373 43.0429C47.2034 43.0429 44.5798 42.3983 42.3662 41.1093C40.3169 39.8966 38.7023 38.2435 37.5225 36.15L52.9322 20.7405L65.0007 27.8963C64.9602 30.8362 64.3619 33.4306 63.2061 35.6796C62.0081 37.9973 60.3024 39.8072 58.0889 41.1093C55.8883 42.3983 53.2712 43.0429 50.2373 43.0429ZM64.4905 22.9435L54.3042 16.9038C53.1251 16.2047 51.6222 16.3937 50.6529 17.3629L35.9559 32.0598C35.6331 30.6646 35.4717 29.1693 35.4717 27.5741C35.4717 24.4751 36.0706 21.7668 37.2686 19.4491C38.4665 17.1184 40.1657 15.3085 42.3662 14.0194C44.5798 12.7173 47.2034 12.0663 50.2373 12.0663C53.2712 12.0663 55.8883 12.7173 58.0889 14.0194C60.3024 15.3085 62.0081 17.1184 63.2061 19.4491C63.7642 20.5291 64.1924 21.6939 64.4905 22.9435ZM111.59 53.7069C110.535 53.7069 109.546 53.6223 108.621 53.453C107.71 53.2968 106.954 53.0949 106.355 52.8475L108.23 46.6366C109.207 46.9361 110.086 47.0988 110.867 47.1249C111.661 47.1509 112.345 46.9686 112.918 46.578C113.504 46.1874 113.979 45.5233 114.344 44.5858L114.832 43.3163L104.07 12.4569H112.82L119.031 34.4882H119.344L125.613 12.4569H134.422L122.762 45.6991C122.202 47.3137 121.44 48.7199 120.477 49.9179C119.526 51.1288 118.322 52.0598 116.863 52.7108C115.405 53.3749 113.647 53.7069 111.59 53.7069ZM142.576 41.1874C144.425 42.3593 146.489 42.9452 148.768 42.9452C150.382 42.9452 151.749 42.6783 152.869 42.1444C154.002 41.6106 154.92 40.94 155.623 40.1327C156.339 39.3124 156.893 38.4856 157.283 37.6522H157.635V42.4569H165.838V2.45691H157.537V17.496H157.283C156.919 16.6887 156.385 15.8684 155.682 15.035C154.992 14.1887 154.08 13.4856 152.947 12.9257C151.827 12.3527 150.428 12.0663 148.748 12.0663C146.548 12.0663 144.523 12.6392 142.674 13.785C140.838 14.9178 139.367 16.6301 138.26 18.9218C137.153 21.2004 136.6 24.0585 136.6 27.496C136.6 30.8423 137.133 33.6678 138.201 35.9725C139.282 38.2642 140.74 40.0025 142.576 41.1874ZM154.803 35.2304C153.878 35.9595 152.745 36.3241 151.404 36.3241C150.037 36.3241 148.885 35.953 147.947 35.2108C147.023 34.4556 146.313 33.4139 145.818 32.0858C145.337 30.7447 145.096 29.2017 145.096 27.4569C145.096 25.7251 145.337 24.2017 145.818 22.8866C146.3 21.5715 147.01 20.5428 147.947 19.8007C148.885 19.0585 150.037 18.6874 151.404 18.6874C152.745 18.6874 153.885 19.0455 154.822 19.7616C155.76 20.4777 156.476 21.4934 156.971 22.8085C157.465 24.1236 157.713 25.6731 157.713 27.4569C157.713 29.2408 157.459 30.7968 156.951 32.1249C156.456 33.453 155.74 34.4882 154.803 35.2304ZM180.999 2.45691V42.4569H172.679V2.45691H180.999ZM216.165 54.3319C213.47 54.3319 211.159 53.9608 209.231 53.2186C207.317 52.4895 205.794 51.4934 204.661 50.2304C203.528 48.9673 202.793 47.5481 202.454 45.9725L210.149 44.9374C210.384 45.5363 210.755 46.0962 211.263 46.6171C211.771 47.1379 212.441 47.5546 213.274 47.8671C214.121 48.1926 215.149 48.3554 216.36 48.3554C218.17 48.3554 219.661 47.9126 220.833 47.0272C222.018 46.1548 222.61 44.69 222.61 42.6327V37.1444H222.259C221.894 37.9777 221.347 38.7655 220.618 39.5077C219.889 40.2499 218.951 40.8554 217.806 41.3241C216.66 41.7929 215.293 42.0272 213.704 42.0272C211.451 42.0272 209.401 41.5064 207.552 40.4647C205.716 39.41 204.251 37.802 203.157 35.6405C202.076 33.466 201.536 30.7186 201.536 27.3983C201.536 23.9999 202.09 21.1613 203.196 18.8827C204.303 16.604 205.774 14.8983 207.61 13.7655C209.459 12.6327 211.484 12.0663 213.685 12.0663C215.364 12.0663 216.771 12.3527 217.903 12.9257C219.036 13.4856 219.948 14.1887 220.638 15.035C221.341 15.8684 221.881 16.6887 222.259 17.496H222.571V12.4569H230.833V42.7499C230.833 45.302 230.208 47.4374 228.958 49.1561C227.708 50.8749 225.976 52.1639 223.763 53.0233C221.562 53.8957 219.03 54.3319 216.165 54.3319ZM216.341 35.7772C217.682 35.7772 218.815 35.4452 219.739 34.7811C220.677 34.104 221.393 33.1405 221.888 31.8905C222.396 30.6275 222.649 29.1171 222.649 27.3593C222.649 25.6014 222.402 24.078 221.907 22.7889C221.412 21.4869 220.696 20.4777 219.759 19.7616C218.821 19.0455 217.682 18.6874 216.341 18.6874C214.974 18.6874 213.821 19.0585 212.884 19.8007C211.946 20.5298 211.237 21.5455 210.755 22.8475C210.273 24.1496 210.032 25.6535 210.032 27.3593C210.032 29.091 210.273 30.5884 210.755 31.8514C211.25 33.1014 211.959 34.0715 212.884 34.7616C213.821 35.4387 214.974 35.7772 216.341 35.7772ZM53.2314 33.9209C53.2314 33.3686 53.6792 32.9209 54.2314 32.9209H58.0759C58.6282 32.9209 59.0759 33.3686 59.0759 33.9209V37.7654C59.0759 38.3177 58.6282 38.7654 58.0759 38.7654H54.2314C53.6792 38.7654 53.2314 38.3177 53.2314 37.7654V33.9209ZM45.2847 32.9209C44.7324 32.9209 44.2847 33.3686 44.2847 33.9209V37.7654C44.2847 38.3177 44.7324 38.7654 45.2847 38.7654H49.1292C49.6814 38.7654 50.1292 38.3177 50.1292 37.7654V33.9209C50.1292 33.3686 49.6814 32.9209 49.1292 32.9209H45.2847Z" fill="black"/>
</svg>
