<svg width="238" height="57" viewBox="0 0 238 57" fill="none" xmlns="http://www.w3.org/2000/svg">
<path d="M0.730957 44.2629V4.26294H16.7466C19.6893 4.26294 22.1437 4.69914 24.1099 5.57153C26.076 6.44393 27.5539 7.65487 28.5435 9.20435C29.533 10.7408 30.0278 12.5116 30.0278 14.5168C30.0278 16.0793 29.7153 17.453 29.0903 18.6379C28.4653 19.8098 27.606 20.7734 26.5122 21.5286C25.4315 22.2708 24.1945 22.7981 22.8013 23.1106V23.5012C24.3247 23.5663 25.7505 23.996 27.0786 24.7903C28.4198 25.5846 29.507 26.6978 30.3403 28.1301C31.1737 29.5494 31.5903 31.2421 31.5903 33.2083C31.5903 35.3307 31.063 37.2252 30.0083 38.8918C28.9666 40.5455 27.4237 41.8541 25.3794 42.8176C23.3351 43.7812 20.8156 44.2629 17.8208 44.2629H0.730957ZM9.18799 37.3489H16.0825C18.4393 37.3489 20.158 36.8997 21.2388 36.0012C22.3195 35.0898 22.8599 33.8788 22.8599 32.3684C22.8599 31.2616 22.5929 30.2851 22.0591 29.4387C21.5252 28.5924 20.7635 27.9283 19.7739 27.4465C18.7974 26.9648 17.632 26.7239 16.2778 26.7239H9.18799V37.3489ZM9.18799 21.0012H15.4575C16.6164 21.0012 17.645 20.7994 18.5435 20.3958C19.4549 19.9791 20.1711 19.3931 20.6919 18.6379C21.2257 17.8827 21.4927 16.9778 21.4927 15.9231C21.4927 14.4778 20.9784 13.3124 19.9497 12.427C18.9341 11.5416 17.4888 11.0989 15.6138 11.0989H9.18799V21.0012Z" fill="black"/>
<path d="M98.5229 15.7668C98.3667 14.1913 97.6961 12.9674 96.5112 12.095C95.3263 11.2226 93.7183 10.7864 91.687 10.7864C90.3068 10.7864 89.1414 10.9817 88.1909 11.3723C87.2404 11.7499 86.5112 12.2773 86.0034 12.9543C85.5086 13.6314 85.2612 14.3997 85.2612 15.259C85.2352 15.9752 85.3849 16.6002 85.7104 17.134C86.049 17.6679 86.5112 18.1301 87.0972 18.5208C87.6831 18.8984 88.3602 19.2304 89.1284 19.5168C89.8966 19.7903 90.717 20.0247 91.5894 20.22L95.1831 21.0793C96.9279 21.47 98.5295 21.9908 99.9878 22.6418C101.446 23.2929 102.709 24.0937 103.777 25.0442C104.845 25.9947 105.671 27.1145 106.257 28.4036C106.856 29.6926 107.162 31.1705 107.175 32.8372C107.162 35.2851 106.537 37.4075 105.3 39.2043C104.076 40.9882 102.306 42.3749 99.9878 43.3645C97.6831 44.3411 94.9032 44.8293 91.6479 44.8293C88.4188 44.8293 85.6063 44.3346 83.2104 43.345C80.8276 42.3554 78.9657 40.8905 77.6245 38.9504C76.2964 36.9973 75.5998 34.582 75.5347 31.7043H83.7183C83.8094 33.0455 84.1935 34.1653 84.8706 35.0637C85.5607 35.9491 86.4787 36.6197 87.6245 37.0754C88.7834 37.5181 90.092 37.7395 91.5503 37.7395C92.9826 37.7395 94.2261 37.5312 95.2808 37.1145C96.3485 36.6978 97.1753 36.1184 97.7612 35.3762C98.3472 34.634 98.6401 33.7812 98.6401 32.8176C98.6401 31.9192 98.3732 31.164 97.8394 30.552C97.3185 29.94 96.5503 29.4192 95.5347 28.9895C94.5321 28.5598 93.3016 28.1692 91.8433 27.8176L87.4878 26.7239C84.1154 25.9036 81.4526 24.621 79.4995 22.8762C77.5464 21.1314 76.5763 18.7812 76.5894 15.8254C76.5763 13.4036 77.2209 11.2877 78.5229 9.47779C79.8381 7.66789 81.6414 6.25513 83.9331 5.2395C86.2248 4.22388 88.8289 3.71607 91.7456 3.71607C94.7144 3.71607 97.3055 4.22388 99.519 5.2395C101.746 6.25513 103.477 7.66789 104.714 9.47779C105.951 11.2877 106.589 13.384 106.628 15.7668H98.5229Z" fill="black"/>
<path d="M117.844 55.5129C116.79 55.5129 115.8 55.4283 114.875 55.259C113.964 55.1028 113.209 54.901 112.61 54.6536L114.485 48.4426C115.461 48.7421 116.34 48.9049 117.122 48.9309C117.916 48.957 118.599 48.7747 119.172 48.384C119.758 47.9934 120.234 47.3293 120.598 46.3918L121.086 45.1223L110.325 14.2629H119.075L125.286 36.2942H125.598L131.868 14.2629H140.676L129.016 47.5051C128.456 49.1197 127.694 50.526 126.731 51.7239C125.78 52.9348 124.576 53.8658 123.118 54.5168C121.659 55.1809 119.902 55.5129 117.844 55.5129Z" fill="black"/>
<path d="M155.022 44.7512C152.743 44.7512 150.68 44.1653 148.831 42.9934C146.995 41.8085 145.536 40.0702 144.456 37.7786C143.388 35.4739 142.854 32.6484 142.854 29.302C142.854 25.8645 143.407 23.0064 144.514 20.7278C145.621 18.4361 147.092 16.7239 148.928 15.5911C150.777 14.4452 152.802 13.8723 155.002 13.8723C156.682 13.8723 158.082 14.1588 159.202 14.7317C160.334 15.2916 161.246 15.9947 161.936 16.8411C162.639 17.6744 163.173 18.4947 163.538 19.302H163.792V4.26294H172.092V44.2629H163.889V39.4583H163.538C163.147 40.2916 162.594 41.1184 161.877 41.9387C161.174 42.746 160.256 43.4166 159.124 43.9504C158.004 44.4843 156.637 44.7512 155.022 44.7512ZM157.659 38.1301C159 38.1301 160.133 37.7655 161.057 37.0364C161.995 36.2942 162.711 35.259 163.206 33.9309C163.713 32.6028 163.967 31.0468 163.967 29.2629C163.967 27.4791 163.72 25.9296 163.225 24.6145C162.73 23.2994 162.014 22.2838 161.077 21.5676C160.139 20.8515 159 20.4934 157.659 20.4934C156.292 20.4934 155.139 20.8645 154.202 21.6067C153.264 22.3489 152.555 23.3775 152.073 24.6926C151.591 26.0077 151.35 27.5312 151.35 29.2629C151.35 31.0077 151.591 32.5507 152.073 33.8918C152.568 35.22 153.277 36.2616 154.202 37.0168C155.139 37.759 156.292 38.1301 157.659 38.1301Z" fill="black"/>
<path d="M187.253 4.26294V44.2629H178.933V4.26294H187.253Z" fill="black"/>
<path d="M193.918 44.2629V14.2629H202.239V44.2629H193.918ZM198.098 10.3958C196.861 10.3958 195.8 9.9856 194.915 9.16528C194.042 8.33195 193.606 7.33586 193.606 6.177C193.606 5.03117 194.042 4.0481 194.915 3.22779C195.8 2.39445 196.861 1.97778 198.098 1.97778C199.335 1.97778 200.39 2.39445 201.262 3.22779C202.148 4.0481 202.59 5.03117 202.59 6.177C202.59 7.33586 202.148 8.33195 201.262 9.16528C200.39 9.9856 199.335 10.3958 198.098 10.3958Z" fill="black"/>
<path d="M222.419 56.1379C219.724 56.1379 217.413 55.7668 215.486 55.0247C213.572 54.2955 212.048 53.2994 210.916 52.0364C209.783 50.7734 209.047 49.3541 208.708 47.7786L216.404 46.7434C216.638 47.3424 217.009 47.9023 217.517 48.4231C218.025 48.9439 218.695 49.3606 219.529 49.6731C220.375 49.9986 221.404 50.1614 222.615 50.1614C224.425 50.1614 225.916 49.7187 227.087 48.8333C228.272 47.9609 228.865 46.496 228.865 44.4387V38.9504H228.513C228.149 39.7838 227.602 40.5715 226.873 41.3137C226.143 42.0559 225.206 42.6614 224.06 43.1301C222.914 43.5989 221.547 43.8333 219.958 43.8333C217.706 43.8333 215.655 43.3124 213.806 42.2708C211.97 41.2161 210.505 39.608 209.412 37.4465C208.331 35.2721 207.791 32.5247 207.791 29.2043C207.791 25.8059 208.344 22.9674 209.451 20.6887C210.557 18.4101 212.029 16.7043 213.865 15.5715C215.714 14.4387 217.738 13.8723 219.939 13.8723C221.619 13.8723 223.025 14.1588 224.158 14.7317C225.291 15.2916 226.202 15.9947 226.892 16.8411C227.595 17.6744 228.136 18.4947 228.513 19.302H228.826V14.2629H237.087V44.5559C237.087 47.108 236.462 49.2434 235.212 50.9622C233.962 52.6809 232.231 53.97 230.017 54.8293C227.817 55.7017 225.284 56.1379 222.419 56.1379ZM222.595 37.5833C223.936 37.5833 225.069 37.2512 225.994 36.5872C226.931 35.9101 227.647 34.9465 228.142 33.6965C228.65 32.4335 228.904 30.9231 228.904 29.1653C228.904 27.4075 228.656 25.884 228.162 24.595C227.667 23.2929 226.951 22.2838 226.013 21.5676C225.076 20.8515 223.936 20.4934 222.595 20.4934C221.228 20.4934 220.076 20.8645 219.138 21.6067C218.201 22.3359 217.491 23.3515 217.009 24.6536C216.528 25.9556 216.287 27.4596 216.287 29.1653C216.287 30.8971 216.528 32.3945 217.009 33.6575C217.504 34.9075 218.214 35.8775 219.138 36.5676C220.076 37.2447 221.228 37.5833 222.595 37.5833Z" fill="black"/>
<path d="M70.2457 43.7464H37.731C37.1787 43.7464 36.731 43.2986 36.731 42.7464V16.261C36.731 15.9677 36.8598 15.6891 37.0832 15.4991L53.5101 1.53405C53.8865 1.21409 54.4401 1.21689 54.8132 1.54063L70.901 15.4996C71.1199 15.6895 71.2457 15.9651 71.2457 16.2549V42.7464C71.2457 43.2986 70.7979 43.7464 70.2457 43.7464Z" fill="black" stroke="black"/>
<path d="M53.9883 41.3959C50.9544 41.3959 48.3307 40.7513 46.1172 39.4623C43.9167 38.1602 42.2174 36.3503 41.0195 34.0326C39.8216 31.7019 39.2227 29 39.2227 25.9271C39.2227 22.8282 39.8216 20.1198 41.0195 17.8021C42.2174 15.4714 43.9167 13.6615 46.1172 12.3724C48.3307 11.0704 50.9544 10.4193 53.9883 10.4193C57.0221 10.4193 59.6393 11.0704 61.8398 12.3724C64.0534 13.6615 65.7591 15.4714 66.957 17.8021C68.1549 20.1198 68.7539 22.8282 68.7539 25.9271C68.7539 29 68.1549 31.7019 66.957 34.0326C65.7591 36.3503 64.0534 38.1602 61.8398 39.4623C59.6393 40.7513 57.0221 41.3959 53.9883 41.3959ZM54.0273 34.9506C55.4076 34.9506 56.5599 34.5599 57.4844 33.7787C58.4089 32.9844 59.1055 31.9037 59.5742 30.5365C60.056 29.1693 60.2969 27.6133 60.2969 25.8685C60.2969 24.1237 60.056 22.5677 59.5742 21.2006C59.1055 19.8334 58.4089 18.7526 57.4844 17.9584C56.5599 17.1641 55.4076 16.767 54.0273 16.767C52.6341 16.767 51.4622 17.1641 50.5117 17.9584C49.5742 18.7526 48.8646 19.8334 48.3828 21.2006C47.9141 22.5677 47.6797 24.1237 47.6797 25.8685C47.6797 27.6133 47.9141 29.1693 48.3828 30.5365C48.8646 31.9037 49.5742 32.9844 50.5117 33.7787C51.4622 34.5599 52.6341 34.9506 54.0273 34.9506Z" fill="white"/>
</svg>
